HIERARCHY
ROOT Hips
{
	OFFSET	0.000000	0.000000	0.000000
	CHANNELS 6 Xposition Yposition Zposition Zrotation Xrotation Yrotation
	JOINT LeftHip
	{
		OFFSET	11.298960	-8.380145	1.031225
		CHANNELS 3 Zrotation Xrotation Yrotation
		JOINT LeftKnee
		{
			OFFSET	-1.779039	-39.577010	0.417431
			CHANNELS 3 Zrotation Xrotation Yrotation
			JOINT LeftAnkle
			{
				OFFSET	0.890862	-42.943018	-6.321374
				CHANNELS 3 Zrotation Xrotation Yrotation
				JOINT LeftAnkleEnd
				{
					OFFSET	-0.632740	-5.685484	-5.621922
					CHANNELS 3 Zrotation Xrotation Yrotation
					End Site
					{
						OFFSET	0.012764	-1.270000	17.907023
					}
				}
			}
		}
	}
	JOINT RightHip
	{
		OFFSET	-11.298960	-8.380145	1.031225
		CHANNELS 3 Zrotation Xrotation Yrotation
		JOINT RightKnee
		{
			OFFSET	1.779039	-39.577010	0.417431
			CHANNELS 3 Zrotation Xrotation Yrotation
			JOINT RightAnkle
			{
				OFFSET	-0.890862	-42.943018	-6.321374
				CHANNELS 3 Zrotation Xrotation Yrotation
				JOINT RightAnkleEnd
				{
					OFFSET	0.632740	-5.685484	-5.621922
					CHANNELS 3 Zrotation Xrotation Yrotation
					End Site
					{
						OFFSET	-0.012764	-1.270000	17.907023
					}
				}
			}
		}
	}
	JOINT Chest
	{
		OFFSET	0.000013	6.720637	2.223076
		CHANNELS 3 Zrotation Xrotation Yrotation
		JOINT Chest1
		{
			OFFSET	-0.073051	18.182640	-2.749017
			CHANNELS 3 Zrotation Xrotation Yrotation
			JOINT LeftCollar
			{
				OFFSET	7.790763	29.076902	-2.820492
				CHANNELS 3 Zrotation Xrotation Yrotation
				JOINT LeftShoulder
				{
					OFFSET	13.187018	-7.309688	1.779387
					CHANNELS 3 Zrotation Xrotation Yrotation
					JOINT LeftElbow
					{
						OFFSET	3.671976	-29.168340	5.964022
						CHANNELS 3 Zrotation Xrotation Yrotation
						JOINT LeftWrist
						{
							OFFSET	0.572018	-25.624790	10.228225
							CHANNELS 3 Zrotation Xrotation Yrotation
							End Site
							{
								OFFSET	-1.779270	-8.879179	2.542515
							}
						}
					}
				}
			}
			JOINT RightCollar
			{
				OFFSET	-7.644689	29.076902	-2.820492
				CHANNELS 3 Zrotation Xrotation Yrotation
				JOINT RightShoulder
				{
					OFFSET	-13.187018	-7.309688	1.779387
					CHANNELS 3 Zrotation Xrotation Yrotation
					JOINT RightElbow
					{
						OFFSET	-3.671976	-29.168340	5.964022
						CHANNELS 3 Zrotation Xrotation Yrotation
						JOINT RightWrist
						{
							OFFSET	-0.572018	-25.624790	10.228225
							CHANNELS 3 Zrotation Xrotation Yrotation
							End Site
							{
								OFFSET	1.779270	-8.879179	2.542515
							}
						}
					}
				}
			}
			JOINT Neck
			{
				OFFSET	-0.441376	29.919930	-1.795122
				CHANNELS 3 Zrotation Xrotation Yrotation
				JOINT Head
				{
					OFFSET	-0.451988	10.184461	3.285312
					CHANNELS 3 Zrotation Xrotation Yrotation
					End Site
					{
						OFFSET	-0.448112	13.050622	-3.935146
					}
				}
			}
		}
	}
}
MOTION
Frames:     18
Frame Time: 0.008333
-5.432779	96.399124	130.653128	178.444885	-165.937134	-43.358410	0.502313	-9.879161	25.125898	-11.831497	22.760899	12.228401	-7.682209	18.323992	4.171762	0.	0.	0.	11.130301	-39.961105	2.738201	6.498371	18.474802	-4.191050	7.073911	15.018502	-15.307399	0.	0.	0.	-12.331100	15.866900	-4.620739	-2.108649	-18.727997	-20.648005	3.368169	8.873671	-19.076105	-5.479387	-40.665497	-37.526108	-57.284489	-69.012146	-62.736702	30.624708	-1.097045	-7.901019	-4.993579	11.255801	-22.844406	-34.522495	31.164501	-25.627604	14.224904	-34.290779	-0.827635	-26.781305	-34.795876	29.793703	11.697096	24.973495	-43.573303	12.367397	26.193890	-27.983501	
-5.813188	97.507729	132.264183	178.934891	-164.686050	-44.212288	1.577890	-10.622302	27.484604	-10.539600	21.206800	10.567400	-6.521970	17.734400	5.120141	0.	0.	0.	12.889197	-41.435909	6.223676	7.055068	19.834705	-2.691188	7.876498	16.461203	-12.651997	0.	0.	0.	-12.778598	16.303698	-4.581159	-1.844846	-18.876003	-20.745504	3.375203	9.349539	-19.944403	-7.255884	-40.934895	-40.000000	-57.358215	-68.206001	-62.835670	30.725101	-0.400245	-8.954141	-4.599167	11.326099	-23.546803	-34.281097	30.627596	-25.790802	14.228403	-33.229294	-1.940066	-26.806301	-36.298298	30.052801	12.432203	25.134098	-43.589699	12.052906	26.368498	-27.136801	
-6.244467	98.448689	133.803963	179.569778	-163.321671	-45.262154	2.897281	-11.276201	29.938898	-9.541859	19.753103	8.963356	-5.389367	16.699610	6.266999	0.	0.	0.	14.822903	-42.946205	9.939929	7.825792	21.731506	-1.402439	8.620761	17.338102	-10.300000	0.	0.	0.	-13.037499	16.807102	-4.455471	-1.489478	-18.960897	-20.750803	3.478521	9.757343	-20.680904	-8.997546	-41.098194	-42.336807	-56.143112	-67.346085	-61.821087	30.625002	-0.043006	-9.722861	-4.279828	11.298404	-24.100004	-34.080597	29.980198	-25.750698	14.346708	-32.531895	-2.864699	-26.784399	-37.524200	30.317703	12.944398	25.086201	-43.448898	11.780400	26.557896	-26.265600	
-6.706659	99.234804	135.271460	-179.669113	-161.850113	-46.489815	4.435639	-11.832699	32.401402	-8.778639	18.390802	7.521241	-4.253580	15.246500	7.570590	0.	0.	0.	16.926504	-44.463100	13.827595	8.776044	24.149200	-0.372764	9.369274	17.650103	-8.394581	0.	0.	0.	-13.127102	17.358803	-4.257921	-1.044262	-18.970697	-20.655804	3.666130	10.088301	-21.283602	-10.649897	-41.157806	-44.467403	-54.125317	-66.447342	-60.139393	30.393894	0.010504	-10.232098	-4.030431	11.178802	-24.522102	-33.890099	29.198902	-25.517597	14.582600	-32.188210	-3.547962	-26.710691	-38.495102	30.577797	13.263498	24.844002	-43.163902	11.540101	26.762703	-25.387402	
-7.177056	99.880326	136.673855	-178.807190	-160.282196	-47.869564	6.165609	-12.293200	34.787201	-8.186610	17.109898	6.330910	-3.087771	13.439097	8.985761	0.	0.	0.	19.171700	-45.959000	17.806404	9.872480	27.056696	0.365770	10.162201	17.427994	-7.032436	0.	0.	0.	-13.070402	17.940998	-4.002059	-0.517122	-18.895498	-20.456799	3.921432	10.336403	-21.751699	-12.151295	-41.118786	-46.323101	-51.755108	-65.519577	-58.194878	30.126499	-0.202850	-10.513502	-3.839216	10.973401	-24.832399	-33.677197	28.258198	-25.122799	14.950401	-32.168594	-3.939566	-26.582504	-39.245594	30.826912	13.428496	24.427498	-42.753201	11.324494	26.981495	-24.524302	
-7.638138	100.399849	138.023811	-177.874481	-158.632782	-49.373207	8.059002	-12.667401	37.019901	-7.706629	15.899899	5.456563	-1.877678	11.369096	10.471203	0.	0.	0.	21.505301	-47.413807	21.776197	11.083901	30.407804	0.798425	11.006200	16.722401	-6.246772	0.	0.	0.	-12.891098	18.536900	-3.700270	0.078274	-18.728703	-20.155201	4.224743	10.498299	-22.085699	-13.442200	-40.986404	-47.843105	-49.411102	-64.581604	-56.322403	29.928602	-0.651451	-10.599492	-3.689988	10.688099	-25.050100	-33.411106	27.137608	-24.613899	15.475001	-32.430199	-3.997474	-26.400900	-39.817509	31.062290	13.482805	23.861403	-42.238396	11.129697	27.210405	-23.700005	
-8.080746	100.808196	139.336919	-176.903458	-156.919342	-50.968315	10.087900	-12.970400	39.037495	-7.289559	14.750101	4.930352	-0.625850	9.144093	11.993002	0.	0.	0.	23.850901	-48.818901	25.622200	12.380599	34.141701	0.927769	11.876400	15.595201	-6.004460	0.	0.	0.	-12.612199	19.130600	-3.363830	0.723695	-18.467501	-19.756903	4.555150	10.572401	-22.288797	-14.472906	-40.763702	-48.982700	-47.380100	-63.663414	-54.771599	29.903296	-1.312568	-10.518601	-3.564420	10.328302	-25.194002	-33.067696	25.828800	-24.047897	16.187601	-32.921497	-3.693069	-26.170702	-40.253906	31.283499	13.469300	23.173401	-41.643398	10.955001	27.443703	-22.937799	
-8.434867	101.105591	140.448799	-175.965439	-155.057892	-52.615234	12.224498	-13.220200	40.795204	-6.899540	13.651001	4.750504	0.648795	6.874310	13.524501	0.	0.	0.	26.115295	-50.180000	29.222504	13.731601	38.182903	0.772518	12.728304	14.115902	-6.216565	0.	0.	0.	-12.254299	19.706900	-3.003378	1.398051	-18.112803	-19.271700	4.892322	10.559200	-22.366301	-15.209599	-40.449108	-49.716904	-45.852894	-62.800392	-53.704506	30.139706	-2.173053	-10.292794	-3.444321	9.898811	-25.281200	-32.632900	24.340307	-23.481503	17.118097	-33.587505	-3.016247	-25.900200	-40.594906	31.490294	13.427101	22.392803	-40.992294	10.802600	27.674404	-22.258600	
-8.779763	101.324560	141.545118	-175.052063	-153.168304	-54.280319	14.440800	-13.435001	42.268303	-6.514721	12.595197	4.884109	1.914869	4.661970	15.043599	0.	0.	0.	28.196898	-51.515709	32.459400	15.102304	42.441395	0.365947	13.514606	12.362098	-6.757879	0.	0.	0.	-11.835600	20.250601	-2.629709	2.079260	-17.669800	-18.712198	5.217972	10.461100	-22.326296	-15.637802	-40.035210	-50.042995	-44.933487	-62.025612	-53.204010	30.704599	-3.227783	-9.936320	-3.313648	9.403940	-25.326096	-32.104897	22.699404	-22.962601	18.287201	-34.374500	-1.979101	-25.601000	-40.875111	31.681396	13.388001	21.549202	-40.307701	10.676902	27.894402	-21.679699	
-9.127214	101.478058	142.627561	-174.192719	-151.267487	-55.927990	16.707600	-13.631700	43.451401	-6.126079	11.577799	5.273485	3.134311	2.592808	16.529903	0.	0.	0.	29.994499	-52.852604	35.227699	16.450699	46.814812	-0.245210	14.200996	10.418900	-7.489811	0.	0.	0.	-11.371101	20.746702	-2.254421	2.746043	-17.146904	-18.093100	5.517044	10.282800	-22.178299	-15.762393	-39.509598	-49.979401	-44.655903	-61.361500	-53.287701	31.637003	-4.476198	-9.457330	-3.159785	8.847330	-25.340199	-31.494297	20.951202	-22.523098	19.699499	-35.234299	-0.617745	-25.285990	-41.122211	31.853397	13.376301	20.670700	-39.609196	10.583401	28.095898	-21.213699	
-9.487491	101.578256	143.686915	-173.413528	-149.370056	-57.524887	18.993999	-13.824499	44.357204	-5.734801	10.595800	5.844691	4.268748	0.731421	17.962603	0.	0.	0.	31.412502	-54.218498	37.440807	17.723900	51.192696	-1.000662	14.775502	8.377321	-8.281669	0.	0.	0.	-10.872502	21.179899	-1.890238	3.379428	-16.556198	-17.429502	5.778310	10.031199	-21.933203	-15.605902	-38.856998	-49.562401	-45.001713	-60.816013	-53.922997	32.946598	-5.917821	-8.859647	-2.974270	8.232288	-25.330799	-30.820406	19.154301	-22.175503	21.338900	-36.128887	1.009077	-24.968704	-41.355995	32.000496	13.408100	19.783297	-38.912605	10.527597	28.271791	-20.868502	
-9.863759	101.637206	144.706688	-172.736404	-147.488190	-59.038052	21.268600	-14.025699	45.014198	-5.348778	9.646753	6.516809	5.285352	-0.880225	19.320898	0.	0.	0.	32.361805	-55.635193	39.030296	18.854404	55.463795	-1.825029	15.250003	6.329519	-9.026632	0.	0.	0.	-10.348599	21.535601	-1.550753	3.963921	-15.912101	-16.736704	5.994753	9.715960	-21.601606	-15.203793	-38.062393	-48.841305	-45.914513	-60.382881	-55.039383	34.614799	-7.547828	-8.145571	-2.752697	7.561940	-25.301302	-30.106201	17.373903	-21.912598	23.169004	-37.033798	2.824929	-24.662100	-41.589310	32.115101	13.492801	18.908798	-38.229202	10.513896	28.416300	-20.646908	
-10.251134	101.666923	145.665845	-172.178131	-145.630966	-60.437973	23.501400	-14.246297	45.462502	-4.978828	8.727169	7.210563	6.161520	-2.221369	20.585104	0.	0.	0.	32.757198	-57.112793	39.941704	19.757605	59.523010	-2.625422	15.653999	4.362508	-9.651381	0.	0.	0.	-9.805048	21.799997	-1.249289	4.488105	-15.231298	-16.029499	6.163492	9.348690	-21.192699	-14.599695	-37.113689	-47.871498	-47.311710	-60.044186	-56.539986	36.597897	-9.353227	-7.318101	-2.494138	6.839410	-25.250700	-29.372601	15.674798	-21.711197	25.138800	-37.940601	4.744299	-24.377403	-41.827705	32.189098	13.634901	18.064297	-37.566101	10.544898	28.525890	-20.547298	
-10.640047	101.678560	146.542129	-171.749985	-143.802628	-61.702576	25.666300	-14.497300	45.750500	-4.635320	7.830983	7.855510	6.887950	-3.289039	21.740101	0.	0.	0.	32.512199	-58.646797	40.127697	20.330803	63.279121	-3.290153	16.024899	2.552587	-10.119306	0.	0.	0.	-9.244828	21.961597	-0.997452	4.944900	-14.531704	-15.321501	6.285653	8.942817	-20.714096	-13.839198	-36.003006	-46.707802	-49.092800	-59.774906	-58.310699	38.832905	-11.310700	-6.382409	-2.200129	6.068088	-25.174295	-28.633701	14.114398	-21.537296	27.190401	-38.856617	6.683752	-24.123798	-42.070614	32.215004	13.835504	17.261694	-36.926495	10.620906	28.599400	-20.563900	
-11.012487	101.682929	147.319058	-171.457947	-142.003128	-62.812359	27.744402	-14.790500	45.930004	-4.325610	6.949148	8.395548	7.469270	-4.093511	22.777298	0.	0.	0.	31.533697	-60.217400	39.539898	20.457100	66.659203	-3.691906	16.396704	0.961057	-10.428597	0.	0.	0.	-8.668420	22.011602	-0.803205	5.331359	-13.831800	-14.625202	6.365918	8.512671	-20.170799	-12.965002	-34.726200	-45.398895	-51.147396	-59.547886	-60.230003	41.243904	-13.385798	-5.346294	-1.873560	5.251911	-25.064796	-27.895096	12.736999	-21.353594	29.269896	-39.802299	8.573496	-23.907700	-42.312107	32.187504	14.093600	16.507401	-36.310898	10.740899	28.637697	-20.687593	
-11.353649	101.688249	147.987699	-171.303192	-140.227402	-63.760212	29.726002	-15.138799	46.052299	-4.052791	6.070431	8.792312	7.922441	-4.653618	23.695898	0.	0.	0.	29.718996	-61.789196	38.123104	20.019100	69.610077	-3.700349	16.792700	-0.368200	-10.605695	0.	0.	0.	-8.074740	21.944901	-0.669378	5.648031	-13.149700	-13.951699	6.412048	8.072431	-19.566301	-12.013896	-33.282394	-43.983906	-53.362095	-59.337189	-62.177105	43.748806	-15.534304	-4.219992	-1.517720	4.395552	-24.913101	-27.154200	11.570904	-21.126408	31.336002	-40.805988	10.367190	-23.732397	-42.541996	32.104393	14.406995	15.803301	-35.717903	10.902493	28.643694	-20.907503	
-11.649819	101.700341	148.549903	-171.283295	-138.466736	-64.547432	31.612101	-15.555500	46.163605	-3.815640	5.183169	9.026708	8.273108	-4.992840	24.503006	0.	0.	0.	26.959194	-63.311005	35.814812	18.926100	72.097878	-3.209439	17.221201	-1.409487	-10.697093	0.	0.	0.	-7.462178	21.761101	-0.592815	5.898211	-12.503000	-13.310699	6.434173	7.635171	-18.903299	-11.014994	-31.672100	-42.491508	-55.626408	-59.119900	-64.039795	46.265205	-17.704603	-3.015916	-1.135730	3.504641	-24.710300	-26.402803	10.628405	-20.831503	33.366806	-41.897812	12.048592	-23.597792	-42.747219	31.967485	14.772301	15.147703	-35.144905	11.104499	28.621803	-21.212206	
-11.893731	101.810528	149.014691	-171.393219	-136.710388	-65.184570	33.413105	-16.052500	46.301205	-3.609396	4.277879	9.098569	8.550802	-5.136542	25.211798	0.	0.	0.	23.151302	-64.715500	32.554005	17.157810	74.104996	-2.181670	17.676804	-2.154633	-10.759002	0.	0.	0.	-6.829900	21.465000	-0.564452	6.086989	-11.907401	-12.709900	6.444038	7.211881	-18.185398	-9.989478	-29.896200	-40.941799	-57.838596	-58.877090	-65.720200	48.715603	-19.840906	-1.748464	-0.730358	2.585841	-24.448999	-25.629993	9.906621	-20.458202	35.362804	-43.103111	13.633093	-23.500790	-42.913410	31.782097	15.184699	14.536700	-34.589195	11.347298	28.576796	-21.591200	
